<?xml version="1.0" encoding="utf-8" standalone="no"?>
<!DOCTYPE svg PUBLIC "-//W3C//DTD SVG 1.1//EN"
  "http://www.w3.org/Graphics/SVG/1.1/DTD/svg11.dtd">
<svg xmlns:xlink="http://www.w3.org/1999/xlink" width="460.8pt" height="345.6pt" viewBox="0 0 460.8 345.6" xmlns="http://www.w3.org/2000/svg" version="1.1">
 <metadata>
  <rdf:RDF xmlns:dc="http://purl.org/dc/elements/1.1/" xmlns:cc="http://creativecommons.org/ns#" xmlns:rdf="http://www.w3.org/1999/02/22-rdf-syntax-ns#">
   <cc:Work>
    <dc:type rdf:resource="http://purl.org/dc/dcmitype/StillImage"/>
    <dc:date>2024-06-16T14:43:53.412460</dc:date>
    <dc:format>image/svg+xml</dc:format>
    <dc:creator>
     <cc:Agent>
      <dc:title>Matplotlib v3.9.0, https://matplotlib.org/</dc:title>
     </cc:Agent>
    </dc:creator>
   </cc:Work>
  </rdf:RDF>
 </metadata>
 <defs>
  <style type="text/css">*{stroke-linejoin: round; stroke-linecap: butt}</style>
 </defs>
 <g id="figure_1">
  <g id="patch_1">
   <path d="M 0 345.6 
L 460.8 345.6 
L 460.8 0 
L 0 0 
z
" style="fill: #ffffff"/>
  </g>
  <g id="axes_1">
   <g id="patch_2">
    <path d="M 57.6 307.584 
L 414.72 307.584 
L 414.72 41.472 
L 57.6 41.472 
z
" style="fill: #ffffff"/>
   </g>
   <g id="matplotlib.axis_1">
    <g id="xtick_1">
     <g id="line2d_1">
      <defs>
       <path id="m4374b0bafd" d="M 0 0 
L 0 3.5 
" style="stroke: #000000; stroke-width: 0.8"/>
      </defs>
      <g>
       <use xlink:href="#m4374b0bafd" x="72.132965" y="307.584" style="stroke: #000000; stroke-width: 0.8"/>
      </g>
     </g>
     <g id="text_1">
      <!-- 0 -->
      <g transform="translate(68.951715 322.182437) scale(0.1 -0.1)">
       <defs>
        <path id="DejaVuSans-30" d="M 2034 4250 
Q 1547 4250 1301 3770 
Q 1056 3291 1056 2328 
Q 1056 1369 1301 889 
Q 1547 409 2034 409 
Q 2525 409 2770 889 
Q 3016 1369 3016 2328 
Q 3016 3291 2770 3770 
Q 2525 4250 2034 4250 
z
M 2034 4750 
Q 2819 4750 3233 4129 
Q 3647 3509 3647 2328 
Q 3647 1150 3233 529 
Q 2819 -91 2034 -91 
Q 1250 -91 836 529 
Q 422 1150 422 2328 
Q 422 3509 836 4129 
Q 1250 4750 2034 4750 
z
" transform="scale(0.015625)"/>
       </defs>
       <use xlink:href="#DejaVuSans-30"/>
      </g>
     </g>
    </g>
    <g id="xtick_2">
     <g id="line2d_2">
      <g>
       <use xlink:href="#m4374b0bafd" x="114.627016" y="307.584" style="stroke: #000000; stroke-width: 0.8"/>
      </g>
     </g>
     <g id="text_2">
      <!-- 25 -->
      <g transform="translate(108.264516 322.182437) scale(0.1 -0.1)">
       <defs>
        <path id="DejaVuSans-32" d="M 1228 531 
L 3431 531 
L 3431 0 
L 469 0 
L 469 531 
Q 828 903 1448 1529 
Q 2069 2156 2228 2338 
Q 2531 2678 2651 2914 
Q 2772 3150 2772 3378 
Q 2772 3750 2511 3984 
Q 2250 4219 1831 4219 
Q 1534 4219 1204 4116 
Q 875 4013 500 3803 
L 500 4441 
Q 881 4594 1212 4672 
Q 1544 4750 1819 4750 
Q 2544 4750 2975 4387 
Q 3406 4025 3406 3419 
Q 3406 3131 3298 2873 
Q 3191 2616 2906 2266 
Q 2828 2175 2409 1742 
Q 1991 1309 1228 531 
z
" transform="scale(0.015625)"/>
        <path id="DejaVuSans-35" d="M 691 4666 
L 3169 4666 
L 3169 4134 
L 1269 4134 
L 1269 2991 
Q 1406 3038 1543 3061 
Q 1681 3084 1819 3084 
Q 2600 3084 3056 2656 
Q 3513 2228 3513 1497 
Q 3513 744 3044 326 
Q 2575 -91 1722 -91 
Q 1428 -91 1123 -41 
Q 819 9 494 109 
L 494 744 
Q 775 591 1075 516 
Q 1375 441 1709 441 
Q 2250 441 2565 725 
Q 2881 1009 2881 1497 
Q 2881 1984 2565 2268 
Q 2250 2553 1709 2553 
Q 1456 2553 1204 2497 
Q 953 2441 691 2322 
L 691 4666 
z
" transform="scale(0.015625)"/>
       </defs>
       <use xlink:href="#DejaVuSans-32"/>
       <use xlink:href="#DejaVuSans-35" x="63.623047"/>
      </g>
     </g>
    </g>
    <g id="xtick_3">
     <g id="line2d_3">
      <g>
       <use xlink:href="#m4374b0bafd" x="157.121066" y="307.584" style="stroke: #000000; stroke-width: 0.8"/>
      </g>
     </g>
     <g id="text_3">
      <!-- 50 -->
      <g transform="translate(150.758566 322.182437) scale(0.1 -0.1)">
       <use xlink:href="#DejaVuSans-35"/>
       <use xlink:href="#DejaVuSans-30" x="63.623047"/>
      </g>
     </g>
    </g>
    <g id="xtick_4">
     <g id="line2d_4">
      <g>
       <use xlink:href="#m4374b0bafd" x="199.615117" y="307.584" style="stroke: #000000; stroke-width: 0.8"/>
      </g>
     </g>
     <g id="text_4">
      <!-- 75 -->
      <g transform="translate(193.252617 322.182437) scale(0.1 -0.1)">
       <defs>
        <path id="DejaVuSans-37" d="M 525 4666 
L 3525 4666 
L 3525 4397 
L 1831 0 
L 1172 0 
L 2766 4134 
L 525 4134 
L 525 4666 
z
" transform="scale(0.015625)"/>
       </defs>
       <use xlink:href="#DejaVuSans-37"/>
       <use xlink:href="#DejaVuSans-35" x="63.623047"/>
      </g>
     </g>
    </g>
    <g id="xtick_5">
     <g id="line2d_5">
      <g>
       <use xlink:href="#m4374b0bafd" x="242.109167" y="307.584" style="stroke: #000000; stroke-width: 0.8"/>
      </g>
     </g>
     <g id="text_5">
      <!-- 100 -->
      <g transform="translate(232.565417 322.182437) scale(0.1 -0.1)">
       <defs>
        <path id="DejaVuSans-31" d="M 794 531 
L 1825 531 
L 1825 4091 
L 703 3866 
L 703 4441 
L 1819 4666 
L 2450 4666 
L 2450 531 
L 3481 531 
L 3481 0 
L 794 0 
L 794 531 
z
" transform="scale(0.015625)"/>
       </defs>
       <use xlink:href="#DejaVuSans-31"/>
       <use xlink:href="#DejaVuSans-30" x="63.623047"/>
       <use xlink:href="#DejaVuSans-30" x="127.246094"/>
      </g>
     </g>
    </g>
    <g id="xtick_6">
     <g id="line2d_6">
      <g>
       <use xlink:href="#m4374b0bafd" x="284.603218" y="307.584" style="stroke: #000000; stroke-width: 0.8"/>
      </g>
     </g>
     <g id="text_6">
      <!-- 125 -->
      <g transform="translate(275.059468 322.182437) scale(0.1 -0.1)">
       <use xlink:href="#DejaVuSans-31"/>
       <use xlink:href="#DejaVuSans-32" x="63.623047"/>
       <use xlink:href="#DejaVuSans-35" x="127.246094"/>
      </g>
     </g>
    </g>
    <g id="xtick_7">
     <g id="line2d_7">
      <g>
       <use xlink:href="#m4374b0bafd" x="327.097268" y="307.584" style="stroke: #000000; stroke-width: 0.8"/>
      </g>
     </g>
     <g id="text_7">
      <!-- 150 -->
      <g transform="translate(317.553518 322.182437) scale(0.1 -0.1)">
       <use xlink:href="#DejaVuSans-31"/>
       <use xlink:href="#DejaVuSans-35" x="63.623047"/>
       <use xlink:href="#DejaVuSans-30" x="127.246094"/>
      </g>
     </g>
    </g>
    <g id="xtick_8">
     <g id="line2d_8">
      <g>
       <use xlink:href="#m4374b0bafd" x="369.591318" y="307.584" style="stroke: #000000; stroke-width: 0.8"/>
      </g>
     </g>
     <g id="text_8">
      <!-- 175 -->
      <g transform="translate(360.047568 322.182437) scale(0.1 -0.1)">
       <use xlink:href="#DejaVuSans-31"/>
       <use xlink:href="#DejaVuSans-37" x="63.623047"/>
       <use xlink:href="#DejaVuSans-35" x="127.246094"/>
      </g>
     </g>
    </g>
    <g id="xtick_9">
     <g id="line2d_9">
      <g>
       <use xlink:href="#m4374b0bafd" x="412.085369" y="307.584" style="stroke: #000000; stroke-width: 0.8"/>
      </g>
     </g>
     <g id="text_9">
      <!-- 200 -->
      <g transform="translate(402.541619 322.182437) scale(0.1 -0.1)">
       <use xlink:href="#DejaVuSans-32"/>
       <use xlink:href="#DejaVuSans-30" x="63.623047"/>
       <use xlink:href="#DejaVuSans-30" x="127.246094"/>
      </g>
     </g>
    </g>
   </g>
   <g id="matplotlib.axis_2">
    <g id="ytick_1">
     <g id="line2d_10">
      <defs>
       <path id="m22cfb43d2d" d="M 0 0 
L -3.5 0 
" style="stroke: #000000; stroke-width: 0.8"/>
      </defs>
      <g>
       <use xlink:href="#m22cfb43d2d" x="57.6" y="253.341401" style="stroke: #000000; stroke-width: 0.8"/>
      </g>
     </g>
     <g id="text_10">
      <!-- 0.2 -->
      <g transform="translate(34.696875 257.140619) scale(0.1 -0.1)">
       <defs>
        <path id="DejaVuSans-2e" d="M 684 794 
L 1344 794 
L 1344 0 
L 684 0 
L 684 794 
z
" transform="scale(0.015625)"/>
       </defs>
       <use xlink:href="#DejaVuSans-30"/>
       <use xlink:href="#DejaVuSans-2e" x="63.623047"/>
       <use xlink:href="#DejaVuSans-32" x="95.410156"/>
      </g>
     </g>
    </g>
    <g id="ytick_2">
     <g id="line2d_11">
      <g>
       <use xlink:href="#m22cfb43d2d" x="57.6" y="196.556496" style="stroke: #000000; stroke-width: 0.8"/>
      </g>
     </g>
     <g id="text_11">
      <!-- 0.4 -->
      <g transform="translate(34.696875 200.355714) scale(0.1 -0.1)">
       <defs>
        <path id="DejaVuSans-34" d="M 2419 4116 
L 825 1625 
L 2419 1625 
L 2419 4116 
z
M 2253 4666 
L 3047 4666 
L 3047 1625 
L 3713 1625 
L 3713 1100 
L 3047 1100 
L 3047 0 
L 2419 0 
L 2419 1100 
L 313 1100 
L 313 1709 
L 2253 4666 
z
" transform="scale(0.015625)"/>
       </defs>
       <use xlink:href="#DejaVuSans-30"/>
       <use xlink:href="#DejaVuSans-2e" x="63.623047"/>
       <use xlink:href="#DejaVuSans-34" x="95.410156"/>
      </g>
     </g>
    </g>
    <g id="ytick_3">
     <g id="line2d_12">
      <g>
       <use xlink:href="#m22cfb43d2d" x="57.6" y="139.771591" style="stroke: #000000; stroke-width: 0.8"/>
      </g>
     </g>
     <g id="text_12">
      <!-- 0.6 -->
      <g transform="translate(34.696875 143.570809) scale(0.1 -0.1)">
       <defs>
        <path id="DejaVuSans-36" d="M 2113 2584 
Q 1688 2584 1439 2293 
Q 1191 2003 1191 1497 
Q 1191 994 1439 701 
Q 1688 409 2113 409 
Q 2538 409 2786 701 
Q 3034 994 3034 1497 
Q 3034 2003 2786 2293 
Q 2538 2584 2113 2584 
z
M 3366 4563 
L 3366 3988 
Q 3128 4100 2886 4159 
Q 2644 4219 2406 4219 
Q 1781 4219 1451 3797 
Q 1122 3375 1075 2522 
Q 1259 2794 1537 2939 
Q 1816 3084 2150 3084 
Q 2853 3084 3261 2657 
Q 3669 2231 3669 1497 
Q 3669 778 3244 343 
Q 2819 -91 2113 -91 
Q 1303 -91 875 529 
Q 447 1150 447 2328 
Q 447 3434 972 4092 
Q 1497 4750 2381 4750 
Q 2619 4750 2861 4703 
Q 3103 4656 3366 4563 
z
" transform="scale(0.015625)"/>
       </defs>
       <use xlink:href="#DejaVuSans-30"/>
       <use xlink:href="#DejaVuSans-2e" x="63.623047"/>
       <use xlink:href="#DejaVuSans-36" x="95.410156"/>
      </g>
     </g>
    </g>
    <g id="ytick_4">
     <g id="line2d_13">
      <g>
       <use xlink:href="#m22cfb43d2d" x="57.6" y="82.986686" style="stroke: #000000; stroke-width: 0.8"/>
      </g>
     </g>
     <g id="text_13">
      <!-- 0.8 -->
      <g transform="translate(34.696875 86.785904) scale(0.1 -0.1)">
       <defs>
        <path id="DejaVuSans-38" d="M 2034 2216 
Q 1584 2216 1326 1975 
Q 1069 1734 1069 1313 
Q 1069 891 1326 650 
Q 1584 409 2034 409 
Q 2484 409 2743 651 
Q 3003 894 3003 1313 
Q 3003 1734 2745 1975 
Q 2488 2216 2034 2216 
z
M 1403 2484 
Q 997 2584 770 2862 
Q 544 3141 544 3541 
Q 544 4100 942 4425 
Q 1341 4750 2034 4750 
Q 2731 4750 3128 4425 
Q 3525 4100 3525 3541 
Q 3525 3141 3298 2862 
Q 3072 2584 2669 2484 
Q 3125 2378 3379 2068 
Q 3634 1759 3634 1313 
Q 3634 634 3220 271 
Q 2806 -91 2034 -91 
Q 1263 -91 848 271 
Q 434 634 434 1313 
Q 434 1759 690 2068 
Q 947 2378 1403 2484 
z
M 1172 3481 
Q 1172 3119 1398 2916 
Q 1625 2713 2034 2713 
Q 2441 2713 2670 2916 
Q 2900 3119 2900 3481 
Q 2900 3844 2670 4047 
Q 2441 4250 2034 4250 
Q 1625 4250 1398 4047 
Q 1172 3844 1172 3481 
z
" transform="scale(0.015625)"/>
       </defs>
       <use xlink:href="#DejaVuSans-30"/>
       <use xlink:href="#DejaVuSans-2e" x="63.623047"/>
       <use xlink:href="#DejaVuSans-38" x="95.410156"/>
      </g>
     </g>
    </g>
   </g>
   <g id="line2d_14">
    <path d="M 73.832727 205.344636 
L 75.532489 201.964582 
L 77.232251 239.145174 
L 78.932013 262.805551 
L 80.631775 237.455147 
L 82.331537 257.735471 
L 84.031299 223.934932 
L 85.731061 244.215255 
L 87.430823 235.765121 
L 89.130585 279.705821 
L 90.830347 259.425498 
L 92.530109 254.355417 
L 94.229871 220.554878 
L 95.929634 210.414717 
L 97.629396 234.075094 
L 99.329158 244.215255 
L 101.02892 264.495578 
L 102.728682 249.285336 
L 104.428444 217.174824 
L 106.128206 247.595309 
L 107.827968 259.425498 
L 109.52773 244.215255 
L 111.227492 242.525228 
L 112.927254 210.414717 
L 114.627016 223.934932 
L 116.326778 240.835201 
L 118.02654 222.244905 
L 119.726302 215.484797 
L 121.426064 244.215255 
L 123.125826 217.174824 
L 124.825588 215.484797 
L 126.52535 242.525228 
L 128.225112 237.455147 
L 129.924874 205.344636 
L 131.624636 232.385067 
L 133.324398 242.525228 
L 135.02416 235.765121 
L 136.723922 239.145174 
L 138.423684 264.495578 
L 140.123446 229.005013 
L 141.823208 269.565659 
L 143.52297 201.964582 
L 145.222732 230.69504 
L 146.922494 208.72469 
L 148.622256 208.72469 
L 150.322018 250.975363 
L 152.02178 247.595309 
L 153.721542 217.174824 
L 155.421304 247.595309 
L 157.121066 205.344636 
L 158.820828 264.495578 
L 160.52059 272.945713 
L 162.220352 235.765121 
L 163.920114 220.554878 
L 165.619876 217.174824 
L 167.319638 240.835201 
L 169.0194 235.765121 
L 170.719162 240.835201 
L 172.418924 240.835201 
L 174.118686 215.484797 
L 175.818448 232.385067 
L 177.51821 237.455147 
L 179.217972 198.584528 
L 180.917734 208.72469 
L 182.617496 190.134393 
L 184.317258 261.115525 
L 186.01702 218.864851 
L 187.716782 223.934932 
L 189.416545 215.484797 
L 191.116307 215.484797 
L 192.816069 234.075094 
L 194.515831 239.145174 
L 196.215593 235.765121 
L 197.915355 186.754339 
L 199.615117 247.595309 
L 201.314879 210.414717 
L 203.014641 215.484797 
L 204.714403 217.174824 
L 206.414165 225.624959 
L 208.113927 176.614178 
L 209.813689 212.104743 
L 211.513451 242.525228 
L 213.213213 247.595309 
L 214.912975 220.554878 
L 216.612737 223.934932 
L 218.312499 220.554878 
L 220.012261 227.314986 
L 221.712023 207.034663 
L 223.411785 207.034663 
L 225.111547 230.69504 
L 226.811309 230.69504 
L 228.511071 208.72469 
L 230.210833 207.034663 
L 231.910595 203.654609 
L 233.610357 220.554878 
L 235.310119 218.864851 
L 237.009881 207.034663 
L 238.709643 222.244905 
L 240.409405 217.174824 
L 242.109167 176.614178 
L 243.808929 179.994232 
L 245.508691 201.964582 
L 247.208453 188.444366 
L 248.908215 227.314986 
L 250.607977 232.385067 
L 252.307739 210.414717 
L 254.007501 225.624959 
L 255.707263 181.684259 
L 259.106787 191.82442 
L 260.806549 179.994232 
L 262.506311 247.595309 
L 264.206073 207.034663 
L 265.905835 186.754339 
L 267.605597 212.104743 
L 269.305359 212.104743 
L 271.005121 196.894501 
L 272.704883 191.82442 
L 274.404645 191.82442 
L 276.104407 183.374286 
L 277.804169 210.414717 
L 279.503931 183.374286 
L 281.203693 215.484797 
L 282.903455 191.82442 
L 284.603218 178.304205 
L 286.30298 201.964582 
L 288.002742 178.304205 
L 291.402266 181.684259 
L 293.102028 207.034663 
L 294.80179 166.474016 
L 296.501552 190.134393 
L 298.201314 188.444366 
L 299.901076 158.023882 
L 301.600838 227.314986 
L 303.3006 212.104743 
L 305.000362 134.363505 
L 306.700124 217.174824 
L 308.399886 171.544097 
L 310.099648 198.584528 
L 311.79941 201.964582 
L 313.499172 185.064313 
L 315.198934 196.894501 
L 316.898696 188.444366 
L 318.598458 193.514447 
L 320.29822 178.304205 
L 321.997982 149.573747 
L 323.697744 201.964582 
L 325.397506 144.503666 
L 327.097268 183.374286 
L 328.79703 186.754339 
L 330.496792 163.093962 
L 332.196554 159.713909 
L 333.896316 161.403935 
L 335.596078 181.684259 
L 337.29584 186.754339 
L 338.995602 163.093962 
L 340.695364 169.85407 
L 344.094888 142.813639 
L 345.79465 154.643828 
L 347.494412 151.263774 
L 349.194174 134.363505 
L 350.893936 166.474016 
L 352.593698 134.363505 
L 354.29346 139.433585 
L 357.692984 142.813639 
L 359.392746 136.053531 
L 361.092508 139.433585 
L 362.79227 110.703127 
L 364.492032 103.94302 
L 366.191794 132.673478 
L 367.891556 115.773208 
L 369.591318 139.433585 
L 371.29108 142.813639 
L 372.990842 110.703127 
L 374.690604 115.773208 
L 376.390366 112.393154 
L 378.090129 141.123612 
L 379.789891 98.872939 
L 381.489653 119.153262 
L 383.189415 110.703127 
L 384.889177 103.94302 
L 386.588939 90.422804 
L 388.288701 95.492885 
L 389.988463 76.902589 
L 391.688225 115.773208 
L 393.387987 102.252993 
L 395.087749 60.002319 
L 396.787511 90.422804 
L 398.487273 73.522535 
L 398.487273 73.522535 
" clip-path="url(#pbc13af311b)" style="fill: none; stroke: #1f77b4; stroke-width: 1.5; stroke-linecap: square"/>
   </g>
   <g id="line2d_15">
    <path d="M 73.832727 130.327619 
L 75.532489 92.793887 
L 77.232251 84.318528 
L 78.932013 57.681685 
L 80.631775 98.242332 
L 82.331537 129.116854 
L 84.031299 90.372356 
L 85.731061 81.291614 
L 87.430823 122.457643 
L 89.130585 122.457643 
L 90.830347 146.067572 
L 92.530109 121.85226 
L 94.229871 118.825346 
L 95.929634 129.722237 
L 97.629396 79.475466 
L 99.329158 140.619127 
L 101.02892 116.403815 
L 102.728682 124.273791 
L 104.428444 116.403815 
L 106.128206 105.506925 
L 107.827968 84.318528 
L 109.52773 109.744605 
L 111.227492 138.802978 
L 112.927254 101.874629 
L 114.627016 75.843169 
L 118.02654 109.744605 
L 119.726302 75.237786 
L 121.426064 84.923911 
L 123.125826 98.242332 
L 124.825588 112.771519 
L 126.52535 114.587667 
L 128.225112 115.19305 
L 129.924874 127.906088 
L 131.624636 124.879174 
L 133.324398 90.372356 
L 135.02416 92.188504 
L 136.723922 84.318528 
L 138.423684 95.820801 
L 140.123446 119.430729 
L 141.823208 105.506925 
L 143.52297 95.820801 
L 145.222732 64.946279 
L 146.922494 91.583121 
L 148.622256 126.08994 
L 150.322018 108.533839 
L 152.02178 119.430729 
L 153.721542 115.19305 
L 155.421304 147.88372 
L 157.121066 89.766973 
L 158.820828 115.19305 
L 160.52059 103.690777 
L 162.220352 112.166136 
L 163.920114 83.107762 
L 165.619876 103.085394 
L 167.319638 80.686231 
L 169.0194 132.74915 
L 170.719162 97.031566 
L 172.418924 150.910634 
L 174.118686 80.080848 
L 177.51821 98.242332 
L 179.217972 136.381447 
L 180.917734 120.641495 
L 182.617496 137.592213 
L 184.317258 124.273791 
L 186.01702 71.000107 
L 187.716782 126.695323 
L 189.416545 96.426183 
L 191.116307 113.982284 
L 192.816069 126.695323 
L 194.515831 111.560753 
L 196.215593 107.323074 
L 197.915355 94.610035 
L 199.615117 123.668409 
L 201.314879 135.170682 
L 203.014641 133.959916 
L 204.714403 92.793887 
L 206.414165 118.825346 
L 208.113927 138.802978 
L 209.813689 130.327619 
L 211.513451 112.771519 
L 213.213213 113.982284 
L 214.912975 137.592213 
L 216.612737 91.583121 
L 218.312499 120.641495 
L 220.012261 144.251423 
L 221.712023 97.636949 
L 223.411785 136.98683 
L 225.111547 140.619127 
L 226.811309 136.98683 
L 228.511071 115.19305 
L 230.210833 144.251423 
L 231.910595 133.354533 
L 233.610357 114.587667 
L 235.310119 130.327619 
L 237.009881 129.722237 
L 238.709643 90.977738 
L 240.409405 144.856806 
L 242.109167 136.98683 
L 243.808929 116.403815 
L 245.508691 147.278337 
L 247.208453 145.462189 
L 248.908215 86.740059 
L 250.607977 121.246878 
L 252.307739 139.408361 
L 254.007501 124.879174 
L 255.707263 138.802978 
L 257.407025 132.74915 
L 259.106787 109.139222 
L 260.806549 138.197595 
L 262.506311 115.798433 
L 264.206073 124.879174 
L 265.905835 129.116854 
L 267.605597 148.489103 
L 269.305359 133.959916 
L 271.005121 156.964462 
L 272.704883 151.516017 
L 274.404645 142.435275 
L 276.104407 149.699868 
L 277.804169 152.121399 
L 279.503931 175.125945 
L 281.203693 133.959916 
L 282.903455 146.067572 
L 284.603218 135.776064 
L 286.30298 149.094486 
L 288.002742 149.699868 
L 289.702504 112.166136 
L 291.402266 108.533839 
L 293.102028 140.619127 
L 294.80179 143.040658 
L 296.501552 131.538385 
L 298.201314 156.359079 
L 299.901076 138.802978 
L 301.600838 170.888266 
L 303.3006 137.592213 
L 305.000362 132.143768 
L 306.700124 135.776064 
L 308.399886 168.466735 
L 310.099648 153.937548 
L 311.79941 166.650586 
L 313.499172 204.184319 
L 315.198934 171.493648 
L 316.898696 163.623672 
L 318.598458 162.412907 
L 320.29822 162.412907 
L 321.997982 175.125945 
L 323.697744 165.439821 
L 325.397506 162.412907 
L 327.097268 200.552022 
L 328.79703 173.91518 
L 330.496792 207.211233 
L 332.196554 189.049749 
L 333.896316 187.233601 
L 335.596078 156.359079 
L 337.29584 185.417452 
L 338.995602 173.91518 
L 340.695364 177.547476 
L 342.395126 191.47128 
L 344.094888 202.36817 
L 345.79465 202.36817 
L 347.494412 204.184319 
L 349.194174 212.659678 
L 350.893936 192.682046 
L 352.593698 189.049749 
L 354.29346 229.610396 
L 355.993222 201.157405 
L 357.692984 183.601304 
L 359.392746 204.184319 
L 361.092508 216.897357 
L 362.79227 239.901903 
L 364.492032 198.130491 
L 366.191794 224.161951 
L 367.891556 217.50274 
L 369.591318 207.816615 
L 371.29108 242.928817 
L 372.990842 216.291974 
L 374.690604 218.713505 
L 376.390366 207.816615 
L 378.090129 240.507286 
L 379.789891 204.789702 
L 381.489653 202.973553 
L 383.189415 227.794247 
L 384.889177 244.744965 
L 386.588939 241.718051 
L 388.288701 225.978099 
L 389.988463 259.274152 
L 391.688225 243.5342 
L 393.387987 256.247238 
L 395.087749 228.39963 
L 396.787511 256.852621 
L 398.487273 225.978099 
L 398.487273 225.978099 
" clip-path="url(#pbc13af311b)" style="fill: none; stroke: #ff7f0e; stroke-width: 1.5; stroke-linecap: square"/>
   </g>
   <g id="line2d_16">
    <path d="M 73.832727 251.671256 
L 75.532489 230.794453 
L 77.232251 247.495896 
L 78.932013 226.619092 
L 80.631775 243.320535 
L 82.331537 247.495896 
L 85.731061 247.495896 
L 87.430823 239.145174 
L 89.130585 234.969814 
L 90.830347 255.846617 
L 92.530109 251.671256 
L 94.229871 226.619092 
L 95.929634 260.021978 
L 97.629396 226.619092 
L 99.329158 230.794453 
L 101.02892 243.320535 
L 102.728682 230.794453 
L 104.428444 247.495896 
L 106.128206 251.671256 
L 107.827968 226.619092 
L 109.52773 247.495896 
L 111.227492 239.145174 
L 112.927254 247.495896 
L 114.627016 251.671256 
L 116.326778 234.969814 
L 118.02654 205.742289 
L 119.726302 226.619092 
L 121.426064 234.969814 
L 123.125826 260.021978 
L 124.825588 234.969814 
L 129.924874 222.443732 
L 131.624636 255.846617 
L 133.324398 243.320535 
L 135.02416 243.320535 
L 136.723922 226.619092 
L 138.423684 239.145174 
L 140.123446 255.846617 
L 143.52297 239.145174 
L 145.222732 222.443732 
L 146.922494 260.021978 
L 148.622256 239.145174 
L 150.322018 226.619092 
L 152.02178 239.145174 
L 153.721542 234.969814 
L 155.421304 243.320535 
L 157.121066 222.443732 
L 158.820828 239.145174 
L 160.52059 230.794453 
L 162.220352 234.969814 
L 163.920114 234.969814 
L 165.619876 251.671256 
L 167.319638 243.320535 
L 169.0194 226.619092 
L 170.719162 243.320535 
L 172.418924 251.671256 
L 174.118686 247.495896 
L 175.818448 222.443732 
L 177.51821 218.268371 
L 179.217972 255.846617 
L 180.917734 243.320535 
L 182.617496 205.742289 
L 184.317258 239.145174 
L 186.01702 226.619092 
L 187.716782 230.794453 
L 189.416545 218.268371 
L 191.116307 209.91765 
L 192.816069 222.443732 
L 194.515831 222.443732 
L 196.215593 218.268371 
L 197.915355 272.54806 
L 199.615117 214.09301 
L 201.314879 247.495896 
L 203.014641 226.619092 
L 204.714403 193.216207 
L 208.113927 218.268371 
L 209.813689 239.145174 
L 211.513451 247.495896 
L 213.213213 239.145174 
L 214.912975 234.969814 
L 216.612737 239.145174 
L 218.312499 222.443732 
L 220.012261 234.969814 
L 221.712023 243.320535 
L 223.411785 226.619092 
L 226.811309 218.268371 
L 228.511071 239.145174 
L 230.210833 226.619092 
L 231.910595 230.794453 
L 233.610357 251.671256 
L 235.310119 234.969814 
L 238.709643 234.969814 
L 240.409405 218.268371 
L 242.109167 226.619092 
L 243.808929 226.619092 
L 245.508691 239.145174 
L 247.208453 218.268371 
L 250.607977 226.619092 
L 252.307739 222.443732 
L 254.007501 230.794453 
L 255.707263 247.495896 
L 257.407025 214.09301 
L 259.106787 209.91765 
L 260.806549 201.566928 
L 262.506311 226.619092 
L 264.206073 193.216207 
L 265.905835 197.391568 
L 267.605597 209.91765 
L 269.305359 239.145174 
L 271.005121 218.268371 
L 272.704883 209.91765 
L 274.404645 222.443732 
L 276.104407 218.268371 
L 277.804169 243.320535 
L 279.503931 209.91765 
L 281.203693 189.040846 
L 282.903455 205.742289 
L 284.603218 214.09301 
L 286.30298 226.619092 
L 288.002742 218.268371 
L 289.702504 193.216207 
L 291.402266 205.742289 
L 293.102028 230.794453 
L 294.80179 205.742289 
L 296.501552 193.216207 
L 298.201314 222.443732 
L 299.901076 205.742289 
L 303.3006 214.09301 
L 305.000362 209.91765 
L 306.700124 184.865486 
L 308.399886 197.391568 
L 310.099648 239.145174 
L 311.79941 193.216207 
L 313.499172 184.865486 
L 315.198934 214.09301 
L 316.898696 189.040846 
L 318.598458 197.391568 
L 320.29822 209.91765 
L 321.997982 209.91765 
L 323.697744 197.391568 
L 325.397506 197.391568 
L 327.097268 172.339404 
L 328.79703 168.164043 
L 330.496792 180.690125 
L 332.196554 189.040846 
L 333.896316 184.865486 
L 337.29584 193.216207 
L 338.995602 189.040846 
L 340.695364 168.164043 
L 342.395126 163.988683 
L 344.094888 168.164043 
L 345.79465 184.865486 
L 347.494412 176.514764 
L 349.194174 176.514764 
L 350.893936 143.111879 
L 352.593698 159.813322 
L 354.29346 168.164043 
L 355.993222 184.865486 
L 357.692984 180.690125 
L 359.392746 184.865486 
L 361.092508 151.462601 
L 362.79227 168.164043 
L 364.492032 151.462601 
L 366.191794 163.988683 
L 367.891556 172.339404 
L 369.591318 168.164043 
L 371.29108 176.514764 
L 372.990842 163.988683 
L 374.690604 176.514764 
L 376.390366 184.865486 
L 378.090129 143.111879 
L 379.789891 163.988683 
L 381.489653 155.637961 
L 383.189415 163.988683 
L 384.889177 143.111879 
L 386.588939 147.28724 
L 388.288701 155.637961 
L 389.988463 143.111879 
L 391.688225 163.988683 
L 393.387987 122.235076 
L 395.087749 113.884355 
L 396.787511 134.761158 
L 398.487273 126.410437 
L 398.487273 126.410437 
" clip-path="url(#pbc13af311b)" style="fill: none; stroke: #2ca02c; stroke-width: 1.5; stroke-linecap: square"/>
   </g>
   <g id="line2d_17">
    <path d="M 73.832727 253.452755 
L 75.532489 263.89956 
L 77.232251 261.350129 
L 78.932013 260.471015 
L 80.631775 260.514971 
L 82.331537 261.906902 
L 84.031299 262.683452 
L 85.731061 264.51494 
L 87.430823 272.397662 
L 89.130585 266.991111 
L 90.830347 250.580983 
L 94.229871 268.866554 
L 95.929634 259.591901 
L 97.629396 269.657757 
L 99.329158 257.130382 
L 101.02892 255.430762 
L 102.728682 262.082724 
L 104.428444 267.357409 
L 106.128206 266.507598 
L 107.827968 260.192629 
L 109.52773 265.481965 
L 111.227492 269.159592 
L 112.927254 260.397756 
L 114.627016 256.397787 
L 116.326778 264.397725 
L 118.02654 259.342819 
L 119.726302 270.038706 
L 121.426064 261.599212 
L 123.125826 254.5663 
L 124.825588 272.99839 
L 126.52535 266.52225 
L 128.225112 259.606553 
L 129.924874 271.049687 
L 131.624636 251.181711 
L 133.324398 262.449022 
L 135.02416 263.225573 
L 136.723922 256.397787 
L 138.423684 263.430699 
L 140.123446 264.573547 
L 141.823208 254.243958 
L 143.52297 264.793326 
L 145.222732 270.155921 
L 146.922494 263.958168 
L 148.622256 268.558864 
L 150.322018 267.972788 
L 152.02178 271.635763 
L 153.721542 266.097345 
L 155.421304 258.053452 
L 157.121066 270.038706 
L 158.820828 259.694465 
L 160.52059 261.950857 
L 162.220352 259.665161 
L 163.920114 266.155953 
L 165.619876 260.075414 
L 167.319638 258.170667 
L 169.0194 258.053452 
L 172.418924 267.826269 
L 174.118686 261.848294 
L 175.818448 263.650478 
L 177.51821 262.74206 
L 179.217972 265.013104 
L 180.917734 268.793295 
L 182.617496 261.775034 
L 184.317258 268.544212 
L 186.01702 260.11937 
L 187.716782 262.580889 
L 189.416545 267.357409 
L 191.116307 265.555225 
L 192.816069 259.81168 
L 194.515831 260.295193 
L 196.215593 266.302472 
L 197.915355 262.170636 
L 199.615117 265.892218 
L 201.314879 256.646869 
L 203.014641 258.390446 
L 204.714403 260.3538 
L 206.414165 258.170667 
L 208.113927 259.254908 
L 209.813689 267.738358 
L 211.513451 260.163325 
L 213.213213 264.148642 
L 214.912975 263.826301 
L 216.612737 258.302534 
L 218.312499 265.994782 
L 220.012261 265.481965 
L 221.712023 263.928864 
L 223.411785 258.536965 
L 225.111547 266.492946 
L 226.811309 259.635857 
L 228.511071 264.046079 
L 230.210833 261.467345 
L 233.610357 263.694433 
L 235.310119 265.071712 
L 237.009881 267.928833 
L 238.709643 269.174244 
L 240.409405 263.489307 
L 242.109167 262.43437 
L 243.808929 271.987409 
L 245.508691 265.496617 
L 247.208453 274.287757 
L 248.908215 263.313484 
L 250.607977 260.207281 
L 252.307739 271.386681 
L 254.007501 262.566237 
L 255.707263 263.855604 
L 257.407025 264.661459 
L 259.106787 270.243833 
L 260.806549 262.566237 
L 262.506311 263.855604 
L 264.206073 267.079022 
L 265.905835 262.624845 
L 267.605597 269.599149 
L 269.305359 259.547946 
L 271.005121 271.767631 
L 272.704883 258.449053 
L 274.404645 275.093612 
L 276.104407 272.573485 
L 277.804169 260.309844 
L 281.203693 266.492946 
L 282.903455 260.485667 
L 284.603218 271.459941 
L 286.30298 264.705415 
L 288.002742 261.687123 
L 289.702504 263.035098 
L 291.402266 269.994751 
L 293.102028 272.983738 
L 294.80179 271.386681 
L 296.501552 267.665098 
L 298.201314 264.720066 
L 299.901076 264.177946 
L 301.600838 267.049719 
L 303.3006 265.452661 
L 305.000362 267.826269 
L 306.700124 266.566206 
L 308.399886 273.452599 
L 310.099648 265.687092 
L 311.79941 279.371967 
L 313.499172 273.599118 
L 315.198934 270.756649 
L 316.898696 272.720004 
L 318.598458 264.74937 
L 320.29822 267.269497 
L 321.997982 271.752979 
L 323.697744 274.170542 
L 325.397506 274.375669 
L 327.097268 276.353675 
L 328.79703 270.170573 
L 330.496792 282.199784 
L 333.896316 267.196238 
L 335.596078 280.133866 
L 337.29584 268.309782 
L 338.995602 273.30608 
L 342.395126 269.584497 
L 344.094888 276.807884 
L 345.79465 270.522219 
L 347.494412 275.210827 
L 349.194174 274.785922 
L 350.893936 273.950764 
L 352.593698 271.166903 
L 354.29346 281.994657 
L 355.993222 277.203486 
L 357.692984 274.22915 
L 359.392746 272.969086 
L 361.092508 278.155859 
L 362.79227 273.599118 
L 364.492032 280.617378 
L 366.191794 278.331682 
L 367.891556 281.950701 
L 369.591318 272.295099 
L 371.29108 275.166871 
L 374.690604 285.774847 
L 376.390366 285.364594 
L 378.090129 276.969055 
L 379.789891 288.368234 
L 381.489653 281.218106 
L 383.189415 283.958012 
L 384.889177 287.166778 
L 386.588939 289.979943 
L 388.288701 275.679688 
L 389.988463 287.078866 
L 391.688225 284.119183 
L 393.387987 284.382917 
L 395.087749 291.606304 
L 396.787511 288.631968 
L 398.487273 294.023867 
L 398.487273 294.023867 
" clip-path="url(#pbc13af311b)" style="fill: none; stroke: #d62728; stroke-width: 1.5; stroke-linecap: square"/>
   </g>
   <g id="line2d_18">
    <path d="M 73.832727 206.781711 
L 75.532489 193.344729 
L 77.232251 208.638855 
L 78.932013 262.823759 
L 80.631775 195.966579 
L 82.331537 216.285918 
L 84.031299 230.924582 
L 85.731061 219.781718 
L 87.430823 257.798546 
L 89.130585 196.840529 
L 90.830347 190.941367 
L 92.530109 234.857357 
L 94.229871 211.479193 
L 95.929634 232.017019 
L 97.629396 206.344736 
L 99.329158 235.075844 
L 101.02892 168.874128 
L 102.728682 225.025419 
L 104.428444 193.016998 
L 106.128206 205.143055 
L 107.827968 222.7313 
L 109.52773 224.369956 
L 111.227492 201.865742 
L 112.927254 239.991814 
L 114.627016 237.151476 
L 116.326778 199.680867 
L 118.02654 223.059031 
L 119.726302 192.79851 
L 121.426064 207.437174 
L 123.125826 220.9834 
L 124.825588 216.722893 
L 126.52535 211.916168 
L 128.225112 255.067452 
L 129.924874 189.958173 
L 131.624636 181.109428 
L 133.324398 201.21028 
L 135.02416 212.57163 
L 136.723922 210.82373 
L 138.423684 212.790118 
L 140.123446 251.680896 
L 141.823208 187.664054 
L 143.52297 213.117849 
L 145.222732 220.655668 
L 146.922494 206.126249 
L 148.622256 217.269112 
L 150.322018 230.59685 
L 152.02178 231.033825 
L 153.721542 187.008591 
L 155.421304 211.588437 
L 157.121066 215.411968 
L 158.820828 173.02539 
L 160.52059 169.201859 
L 162.220352 182.420353 
L 163.920114 207.437174 
L 165.619876 220.327937 
L 167.319638 225.680881 
L 169.0194 199.353136 
L 170.719162 193.235485 
L 172.418924 176.084216 
L 174.118686 241.411982 
L 175.818448 199.243892 
L 177.51821 220.327937 
L 179.217972 189.084223 
L 180.917734 220.874156 
L 182.617496 183.731279 
L 184.317258 237.806938 
L 186.01702 236.277526 
L 187.716782 201.647255 
L 189.416545 196.185067 
L 191.116307 197.605236 
L 192.816069 202.95818 
L 194.515831 233.437188 
L 196.215593 223.714494 
L 197.915355 213.336337 
L 199.615117 160.243871 
L 201.314879 228.521219 
L 203.014641 170.185053 
L 204.714403 250.697702 
L 206.414165 213.664068 
L 208.113927 202.411961 
L 209.813689 201.101036 
L 211.513451 229.613657 
L 213.213213 214.101043 
L 214.912975 212.899362 
L 216.612737 173.571609 
L 218.312499 209.185074 
L 220.012261 192.470779 
L 221.712023 164.067402 
L 223.411785 174.664047 
L 225.111547 232.344751 
L 226.811309 233.655676 
L 228.511071 230.050632 
L 230.210833 205.143055 
L 231.910595 170.840515 
L 233.610357 165.269084 
L 235.310119 194.109436 
L 237.009881 216.613649 
L 238.709643 226.773319 
L 240.409405 175.537997 
L 242.109167 201.756499 
L 243.808929 189.521198 
L 245.508691 166.798496 
L 247.208453 199.353136 
L 248.908215 225.790125 
L 250.607977 192.470779 
L 252.307739 155.546389 
L 254.007501 201.756499 
L 255.707263 213.554824 
L 257.407025 254.630477 
L 259.106787 158.386727 
L 260.806549 179.252285 
L 262.506311 179.470772 
L 264.206073 164.722865 
L 265.905835 196.403554 
L 267.605597 190.395148 
L 269.305359 221.638862 
L 271.005121 200.117842 
L 272.704883 206.563224 
L 274.404645 206.890955 
L 276.104407 224.916175 
L 277.804169 199.353136 
L 279.503931 200.117842 
L 281.203693 184.823716 
L 282.903455 182.638841 
L 284.603218 219.453987 
L 286.30298 186.790104 
L 288.002742 159.697652 
L 289.702504 182.966572 
L 291.402266 153.689245 
L 293.102028 234.857357 
L 294.80179 192.252292 
L 296.501552 203.285911 
L 298.201314 162.101015 
L 299.901076 196.075823 
L 301.600838 201.647255 
L 303.3006 176.848922 
L 305.000362 174.554803 
L 306.700124 205.361542 
L 308.399886 160.243871 
L 310.099648 184.714472 
L 311.79941 158.058996 
L 313.499172 196.294311 
L 315.198934 182.31111 
L 316.898696 162.428746 
L 318.598458 157.731264 
L 320.29822 194.000192 
L 321.997982 181.327916 
L 323.697744 197.932967 
L 325.397506 148.227057 
L 327.097268 148.773276 
L 328.79703 161.227065 
L 330.496792 165.596815 
L 332.196554 180.56321 
L 333.896316 141.344701 
L 335.596078 148.445545 
L 337.29584 180.890941 
L 338.995602 192.252292 
L 340.695364 187.882541 
L 342.395126 184.05901 
L 344.094888 180.781697 
L 345.79465 183.840522 
L 347.494412 117.20183 
L 349.194174 104.748042 
L 350.893936 140.361507 
L 352.593698 127.3615 
L 354.29346 155.655633 
L 355.993222 159.042189 
L 357.692984 127.033769 
L 359.392746 144.294282 
L 361.092508 129.764863 
L 362.79227 127.3615 
L 364.492032 163.084208 
L 366.191794 108.899305 
L 367.891556 176.084216 
L 369.591318 130.8573 
L 371.29108 134.899319 
L 372.990842 142.983357 
L 374.690604 143.966551 
L 376.390366 124.630406 
L 378.090129 147.571595 
L 379.789891 149.428739 
L 381.489653 101.579973 
L 383.189415 114.361493 
L 384.889177 104.311067 
L 386.588939 120.588387 
L 388.288701 94.042154 
L 389.988463 95.025348 
L 391.688225 96.227029 
L 393.387987 98.848879 
L 395.087749 94.479129 
L 396.787511 99.832073 
L 398.487273 106.495942 
L 398.487273 106.495942 
" clip-path="url(#pbc13af311b)" style="fill: none; stroke: #9467bd; stroke-width: 1.5; stroke-linecap: square"/>
   </g>
   <g id="line2d_19">
    <path d="M 73.832727 215.484797 
L 75.532489 215.484797 
L 77.232251 262.805551 
L 78.932013 215.484797 
L 80.631775 191.82442 
L 82.331537 239.145174 
L 84.031299 215.484797 
L 85.731061 239.145174 
L 89.130585 191.82442 
L 92.530109 239.145174 
L 94.229871 191.82442 
L 95.929634 191.82442 
L 97.629396 239.145174 
L 99.329158 215.484797 
L 102.728682 215.484797 
L 104.428444 239.145174 
L 106.128206 215.484797 
L 112.927254 215.484797 
L 116.326778 168.164043 
L 118.02654 191.82442 
L 119.726302 262.805551 
L 121.426064 191.82442 
L 123.125826 262.805551 
L 124.825588 215.484797 
L 129.924874 215.484797 
L 131.624636 239.145174 
L 133.324398 215.484797 
L 146.922494 215.484797 
L 148.622256 191.82442 
L 150.322018 191.82442 
L 152.02178 215.484797 
L 157.121066 215.484797 
L 158.820828 191.82442 
L 160.52059 239.145174 
L 162.220352 215.484797 
L 165.619876 215.484797 
L 167.319638 239.145174 
L 169.0194 215.484797 
L 170.719162 262.805551 
L 172.418924 215.484797 
L 174.118686 191.82442 
L 175.818448 239.145174 
L 177.51821 239.145174 
L 179.217972 168.164043 
L 180.917734 239.145174 
L 182.617496 215.484797 
L 184.317258 239.145174 
L 186.01702 191.82442 
L 187.716782 215.484797 
L 191.116307 215.484797 
L 192.816069 239.145174 
L 196.215593 239.145174 
L 197.915355 215.484797 
L 199.615117 215.484797 
L 201.314879 262.805551 
L 203.014641 191.82442 
L 204.714403 215.484797 
L 206.414165 168.164043 
L 208.113927 215.484797 
L 209.813689 215.484797 
L 211.513451 191.82442 
L 213.213213 239.145174 
L 214.912975 215.484797 
L 216.612737 215.484797 
L 218.312499 168.164043 
L 220.012261 239.145174 
L 221.712023 215.484797 
L 223.411785 215.484797 
L 225.111547 239.145174 
L 226.811309 168.164043 
L 228.511071 215.484797 
L 230.210833 215.484797 
L 233.610357 168.164043 
L 235.310119 215.484797 
L 237.009881 215.484797 
L 238.709643 239.145174 
L 240.409405 191.82442 
L 243.808929 239.145174 
L 245.508691 191.82442 
L 247.208453 215.484797 
L 248.908215 215.484797 
L 250.607977 191.82442 
L 252.307739 215.484797 
L 254.007501 120.843289 
L 255.707263 191.82442 
L 257.407025 168.164043 
L 260.806549 215.484797 
L 262.506311 168.164043 
L 264.206073 191.82442 
L 265.905835 168.164043 
L 267.605597 191.82442 
L 269.305359 168.164043 
L 271.005121 239.145174 
L 272.704883 191.82442 
L 274.404645 168.164043 
L 276.104407 191.82442 
L 277.804169 168.164043 
L 281.203693 215.484797 
L 284.603218 168.164043 
L 286.30298 215.484797 
L 288.002742 191.82442 
L 291.402266 191.82442 
L 293.102028 168.164043 
L 294.80179 239.145174 
L 296.501552 191.82442 
L 298.201314 168.164043 
L 301.600838 215.484797 
L 305.000362 168.164043 
L 306.700124 215.484797 
L 308.399886 168.164043 
L 310.099648 191.82442 
L 311.79941 168.164043 
L 313.499172 215.484797 
L 315.198934 191.82442 
L 316.898696 191.82442 
L 318.598458 144.503666 
L 320.29822 215.484797 
L 321.997982 191.82442 
L 323.697744 215.484797 
L 325.397506 168.164043 
L 328.79703 168.164043 
L 330.496792 144.503666 
L 332.196554 191.82442 
L 333.896316 168.164043 
L 335.596078 168.164043 
L 337.29584 144.503666 
L 338.995602 215.484797 
L 340.695364 168.164043 
L 342.395126 168.164043 
L 344.094888 120.843289 
L 345.79465 168.164043 
L 347.494412 168.164043 
L 349.194174 191.82442 
L 350.893936 168.164043 
L 352.593698 191.82442 
L 354.29346 144.503666 
L 357.692984 191.82442 
L 361.092508 144.503666 
L 362.79227 144.503666 
L 364.492032 191.82442 
L 366.191794 144.503666 
L 367.891556 191.82442 
L 369.591318 168.164043 
L 371.29108 168.164043 
L 372.990842 120.843289 
L 374.690604 144.503666 
L 378.090129 144.503666 
L 379.789891 97.182912 
L 381.489653 97.182912 
L 384.889177 144.503666 
L 386.588939 144.503666 
L 388.288701 97.182912 
L 389.988463 120.843289 
L 391.688225 120.843289 
L 393.387987 144.503666 
L 395.087749 73.522535 
L 396.787511 168.164043 
L 398.487273 120.843289 
L 398.487273 120.843289 
" clip-path="url(#pbc13af311b)" style="fill: none; stroke: #8c564b; stroke-width: 1.5; stroke-linecap: square"/>
   </g>
   <g id="line2d_20">
    <path d="M 73.832727 257.95945 
L 75.532489 229.738037 
L 77.232251 212.634149 
L 78.932013 212.634149 
L 80.631775 210.923761 
L 82.331537 234.014008 
L 84.031299 201.516623 
L 85.731061 194.675068 
L 87.430823 232.30362 
L 89.130585 267.366588 
L 90.830347 218.62051 
L 92.530109 237.434786 
L 94.229871 151.060156 
L 95.929634 212.634149 
L 97.629396 205.792595 
L 99.329158 231.448425 
L 101.02892 192.964679 
L 102.728682 189.543902 
L 104.428444 260.525033 
L 106.128206 153.625739 
L 107.827968 210.923761 
L 109.52773 176.715987 
L 111.227492 230.593231 
L 112.927254 210.068566 
L 114.627016 176.715987 
L 116.326778 228.882842 
L 118.02654 204.9374 
L 119.726302 212.634149 
L 121.426064 250.262701 
L 123.125826 225.462065 
L 124.825588 240.855563 
L 126.52535 214.344538 
L 128.225112 181.847153 
L 129.924874 196.385457 
L 131.624636 204.9374 
L 133.324398 196.385457 
L 135.02416 243.421146 
L 136.723922 248.552312 
L 138.423684 241.710757 
L 140.123446 222.041287 
L 141.823208 208.358178 
L 143.52297 232.30362 
L 145.222732 222.041287 
L 146.922494 248.552312 
L 148.622256 197.240651 
L 150.322018 205.792595 
L 152.02178 224.60687 
L 153.721542 251.97309 
L 155.421304 222.896482 
L 157.121066 176.715987 
L 158.820828 173.295209 
L 160.52059 177.571181 
L 162.220352 190.399096 
L 163.920114 206.647789 
L 165.619876 207.502983 
L 167.319638 200.661429 
L 169.0194 231.448425 
L 170.719162 251.117895 
L 172.418924 214.344538 
L 174.118686 213.489344 
L 175.818448 234.014008 
L 177.51821 228.027648 
L 179.217972 191.254291 
L 180.917734 222.896482 
L 182.617496 218.62051 
L 184.317258 199.806234 
L 186.01702 214.344538 
L 187.716782 198.95104 
L 189.416545 204.9374 
L 191.116307 223.751676 
L 192.816069 224.60687 
L 194.515831 207.502983 
L 196.215593 217.765316 
L 197.915355 160.467294 
L 199.615117 245.986729 
L 201.314879 224.60687 
L 203.014641 195.530262 
L 204.714403 243.421146 
L 206.414165 232.30362 
L 208.113927 247.697118 
L 209.813689 180.136764 
L 211.513451 239.145174 
L 213.213213 186.123125 
L 214.912975 187.833513 
L 216.612737 218.62051 
L 218.312499 256.249061 
L 220.012261 214.344538 
L 221.712023 245.986729 
L 223.411785 222.041287 
L 225.111547 185.26793 
L 226.811309 244.276341 
L 228.511071 166.453654 
L 230.210833 169.874432 
L 231.910595 204.082206 
L 233.610357 169.019238 
L 235.310119 226.317259 
L 237.009881 236.579591 
L 238.709643 242.565952 
L 240.409405 203.227012 
L 242.109167 223.751676 
L 243.808929 178.426375 
L 245.508691 169.874432 
L 247.208453 224.60687 
L 248.908215 217.765316 
L 250.607977 241.710757 
L 252.307739 184.412736 
L 254.007501 197.240651 
L 255.707263 115.141993 
L 257.407025 200.661429 
L 259.106787 195.530262 
L 260.806549 185.26793 
L 262.506311 186.123125 
L 264.206073 184.412736 
L 265.905835 216.054927 
L 267.605597 186.123125 
L 269.305359 187.833513 
L 271.005121 210.068566 
L 272.704883 213.489344 
L 274.404645 185.26793 
L 276.104407 173.295209 
L 277.804169 188.688708 
L 279.503931 131.390686 
L 281.203693 123.693937 
L 282.903455 201.516623 
L 284.603218 160.467294 
L 286.30298 200.661429 
L 288.002742 157.901711 
L 289.702504 202.371817 
L 291.402266 207.502983 
L 293.102028 182.702347 
L 294.80179 156.191322 
L 296.501552 140.797824 
L 298.201314 204.082206 
L 299.901076 169.874432 
L 301.600838 204.082206 
L 303.3006 170.729626 
L 305.000362 205.792595 
L 306.700124 175.005598 
L 308.399886 147.639379 
L 310.099648 152.770545 
L 311.79941 209.213372 
L 313.499172 198.95104 
L 315.198934 176.715987 
L 316.898696 149.349767 
L 318.598458 161.322488 
L 320.29822 180.991958 
L 321.997982 221.186093 
L 323.697744 155.336128 
L 325.397506 165.59846 
L 327.097268 151.91535 
L 328.79703 172.440015 
L 330.496792 185.26793 
L 332.196554 157.901711 
L 333.896316 173.295209 
L 335.596078 171.584821 
L 337.29584 153.625739 
L 338.995602 225.462065 
L 340.695364 167.308849 
L 342.395126 166.453654 
L 344.094888 118.562771 
L 345.79465 157.046517 
L 347.494412 144.218601 
L 349.194174 169.874432 
L 350.893936 142.508213 
L 352.593698 177.571181 
L 354.29346 127.969909 
L 357.692984 184.412736 
L 359.392746 139.94263 
L 361.092508 163.888071 
L 362.79227 134.811463 
L 364.492032 128.825103 
L 366.191794 159.6121 
L 367.891556 187.833513 
L 369.591318 104.879661 
L 371.29108 169.019238 
L 372.990842 89.486163 
L 374.690604 124.549131 
L 376.390366 169.019238 
L 378.090129 107.445244 
L 379.789891 119.417965 
L 381.489653 53.568 
L 383.189415 136.521852 
L 384.889177 65.540721 
L 386.588939 88.630968 
L 388.288701 113.431605 
L 389.988463 129.680297 
L 393.387987 56.133583 
L 395.087749 102.314078 
L 396.787511 127.969909 
L 398.487273 110.866022 
L 398.487273 110.866022 
" clip-path="url(#pbc13af311b)" style="fill: none; stroke: #e377c2; stroke-width: 1.5; stroke-linecap: square"/>
   </g>
   <g id="line2d_21">
    <path d="M 73.832727 107.637497 
L 75.532489 120.843289 
L 77.232251 131.848116 
L 78.932013 147.254873 
L 80.631775 142.852942 
L 82.331537 125.24522 
L 84.031299 98.833636 
L 85.731061 127.446185 
L 87.430823 109.838462 
L 89.130585 131.848116 
L 90.830347 134.049081 
L 92.530109 107.637497 
L 94.229871 136.250046 
L 95.929634 81.225913 
L 97.629396 123.044254 
L 99.329158 127.446185 
L 101.02892 162.66163 
L 102.728682 145.053907 
L 104.428444 164.862595 
L 106.128206 114.240393 
L 107.827968 101.034601 
L 109.52773 138.451012 
L 111.227492 134.049081 
L 112.927254 120.843289 
L 114.627016 131.848116 
L 116.326778 151.656803 
L 118.02654 123.044254 
L 119.726302 118.642324 
L 121.426064 136.250046 
L 123.125826 109.838462 
L 124.825588 134.049081 
L 126.52535 116.441358 
L 128.225112 158.259699 
L 129.924874 162.66163 
L 131.624636 92.23074 
L 133.324398 151.656803 
L 135.02416 123.044254 
L 136.723922 107.637497 
L 138.423684 186.872248 
L 140.123446 156.058734 
L 141.823208 92.23074 
L 143.52297 120.843289 
L 145.222732 123.044254 
L 146.922494 107.637497 
L 148.622256 167.063561 
L 150.322018 136.250046 
L 152.02178 123.044254 
L 153.721542 134.049081 
L 155.421304 107.637497 
L 157.121066 153.857769 
L 158.820828 134.049081 
L 160.52059 120.843289 
L 162.220352 142.852942 
L 163.920114 129.64715 
L 165.619876 107.637497 
L 167.319638 191.274179 
L 169.0194 156.058734 
L 170.719162 136.250046 
L 172.418924 138.451012 
L 174.118686 145.053907 
L 175.818448 145.053907 
L 177.51821 114.240393 
L 179.217972 171.465491 
L 180.917734 136.250046 
L 182.617496 142.852942 
L 184.317258 131.848116 
L 186.01702 127.446185 
L 187.716782 131.848116 
L 189.416545 120.843289 
L 191.116307 151.656803 
L 192.816069 164.862595 
L 194.515831 156.058734 
L 196.215593 114.240393 
L 197.915355 164.862595 
L 199.615117 145.053907 
L 201.314879 116.441358 
L 203.014641 123.044254 
L 204.714403 147.254873 
L 206.414165 142.852942 
L 208.113927 145.053907 
L 209.813689 171.465491 
L 211.513451 145.053907 
L 213.213213 164.862595 
L 214.912975 180.269352 
L 216.612737 118.642324 
L 218.312499 134.049081 
L 220.012261 147.254873 
L 221.712023 142.852942 
L 223.411785 131.848116 
L 225.111547 125.24522 
L 226.811309 96.632671 
L 228.511071 123.044254 
L 230.210833 151.656803 
L 231.910595 153.857769 
L 233.610357 173.666456 
L 235.310119 147.254873 
L 237.009881 118.642324 
L 238.709643 129.64715 
L 240.409405 160.460665 
L 242.109167 136.250046 
L 243.808929 175.867422 
L 245.508691 134.049081 
L 247.208453 189.073214 
L 248.908215 129.64715 
L 250.607977 171.465491 
L 252.307739 103.235567 
L 254.007501 118.642324 
L 255.707263 175.867422 
L 257.407025 109.838462 
L 259.106787 107.637497 
L 260.806549 138.451012 
L 262.506311 156.058734 
L 264.206073 142.852942 
L 265.905835 145.053907 
L 267.605597 136.250046 
L 269.305359 114.240393 
L 271.005121 180.269352 
L 272.704883 147.254873 
L 274.404645 118.642324 
L 276.104407 162.66163 
L 277.804169 202.279005 
L 279.503931 151.656803 
L 281.203693 142.852942 
L 282.903455 164.862595 
L 284.603218 191.274179 
L 286.30298 153.857769 
L 288.002742 140.651977 
L 289.702504 153.857769 
L 291.402266 156.058734 
L 293.102028 184.671283 
L 294.80179 180.269352 
L 296.501552 224.288659 
L 298.201314 131.848116 
L 299.901076 191.274179 
L 301.600838 153.857769 
L 303.3006 173.666456 
L 305.000362 149.455838 
L 306.700124 120.843289 
L 308.399886 147.254873 
L 310.099648 160.460665 
L 311.79941 116.441358 
L 313.499172 184.671283 
L 315.198934 167.063561 
L 316.898696 175.867422 
L 318.598458 193.475144 
L 320.29822 189.073214 
L 321.997982 171.465491 
L 325.397506 171.465491 
L 327.097268 191.274179 
L 328.79703 217.685763 
L 330.496792 171.465491 
L 332.196554 169.264526 
L 333.896316 160.460665 
L 335.596078 191.274179 
L 337.29584 171.465491 
L 338.995602 193.475144 
L 340.695364 175.867422 
L 342.395126 173.666456 
L 344.094888 226.489624 
L 345.79465 195.67611 
L 347.494412 169.264526 
L 349.194174 197.877075 
L 352.593698 211.082867 
L 354.29346 204.479971 
L 355.993222 171.465491 
L 357.692984 173.666456 
L 359.392746 213.283832 
L 361.092508 195.67611 
L 362.79227 191.274179 
L 364.492032 197.877075 
L 366.191794 211.082867 
L 367.891556 215.484797 
L 369.591318 213.283832 
L 371.29108 182.470318 
L 372.990842 202.279005 
L 374.690604 197.877075 
L 376.390366 171.465491 
L 378.090129 151.656803 
L 379.789891 266.106999 
L 381.489653 246.298312 
L 383.189415 217.685763 
L 384.889177 246.298312 
L 386.588939 228.690589 
L 388.288701 237.49445 
L 389.988463 248.499277 
L 391.688225 228.690589 
L 393.387987 235.293485 
L 395.087749 233.09252 
L 396.787511 241.896381 
L 398.487273 235.293485 
L 398.487273 235.293485 
" clip-path="url(#pbc13af311b)" style="fill: none; stroke: #7f7f7f; stroke-width: 1.5; stroke-linecap: square"/>
   </g>
   <g id="line2d_22">
    <path d="M 73.832727 104.377078 
L 75.532489 102.573636 
L 77.232251 133.702616 
L 80.631775 110.101047 
L 82.331537 124.803021 
L 84.031299 120.686468 
L 85.731061 146.875585 
L 87.430823 109.238531 
L 89.130585 84.617625 
L 90.830347 80.971535 
L 92.530109 125.155868 
L 94.229871 160.558222 
L 95.929634 118.647794 
L 97.629396 131.42871 
L 99.329158 90.263183 
L 101.02892 138.524863 
L 102.728682 112.335747 
L 104.428444 132.8401 
L 106.128206 103.20092 
L 107.827968 147.071611 
L 109.52773 119.980773 
L 111.227492 89.79272 
L 112.927254 123.744479 
L 114.627016 100.534962 
L 116.326778 105.984494 
L 118.02654 93.321193 
L 119.726302 157.26498 
L 121.426064 127.6258 
L 123.125826 107.513499 
L 124.825588 137.191884 
L 126.52535 72.660019 
L 128.225112 131.193479 
L 129.924874 147.424458 
L 131.624636 105.396415 
L 133.324398 99.750857 
L 135.02416 98.025825 
L 136.723922 81.716435 
L 138.423684 123.626863 
L 140.123446 120.882494 
L 141.823208 94.418941 
L 143.52297 121.627394 
L 145.222732 145.228963 
L 146.922494 82.304514 
L 148.622256 114.060778 
L 150.322018 121.823421 
L 152.02178 77.599882 
L 153.721542 125.547921 
L 155.421304 92.301857 
L 157.121066 107.67032 
L 158.820828 125.508715 
L 160.52059 135.8197 
L 162.220352 120.647263 
L 163.920114 176.593175 
L 165.619876 128.801958 
L 167.319638 135.035595 
L 169.0194 128.801958 
L 170.719162 155.226306 
L 172.418924 94.418941 
L 174.118686 116.922763 
L 175.818448 126.018384 
L 177.51821 162.518485 
L 179.217972 133.937847 
L 180.917734 118.098921 
L 182.617496 121.548984 
L 184.317258 145.072142 
L 186.01702 154.559816 
L 187.716782 144.209627 
L 189.416545 121.941036 
L 191.116307 91.713778 
L 192.816069 116.491505 
L 194.515831 147.698895 
L 196.215593 112.80621 
L 197.915355 118.883026 
L 199.615117 130.6054 
L 201.314879 95.046225 
L 203.014641 160.832659 
L 204.714403 131.977584 
L 206.414165 146.287506 
L 208.113927 126.998516 
L 209.813689 122.4115 
L 211.513451 162.283254 
L 213.213213 140.2891 
L 214.912975 164.635569 
L 216.612737 157.304185 
L 218.312499 113.982368 
L 220.012261 135.270826 
L 221.712023 147.65969 
L 223.411785 139.740226 
L 225.111547 83.91193 
L 226.811309 118.02051 
L 228.511071 130.566195 
L 230.210833 171.535696 
L 231.910595 121.313752 
L 233.610357 140.485127 
L 235.310119 141.034 
L 237.009881 152.481937 
L 238.709643 168.516891 
L 240.409405 177.573307 
L 242.109167 108.297604 
L 243.808929 105.984494 
L 245.508691 125.430305 
L 247.208453 100.495757 
L 248.908215 135.623674 
L 250.607977 117.432431 
L 252.307739 106.023699 
L 254.007501 108.454425 
L 255.707263 149.776774 
L 257.407025 129.037189 
L 259.106787 152.952401 
L 260.806549 184.943896 
L 262.506311 142.915853 
L 264.206073 147.071611 
L 265.905835 121.470573 
L 267.605597 150.168827 
L 269.305359 130.958247 
L 271.005121 199.410639 
L 272.704883 152.364322 
L 274.404645 143.660753 
L 276.104407 148.639821 
L 277.804169 103.20092 
L 279.503931 159.146832 
L 281.203693 154.167764 
L 282.903455 176.867612 
L 284.603218 149.502337 
L 286.30298 178.906286 
L 288.002742 159.970143 
L 289.702504 165.106033 
L 291.402266 164.517954 
L 293.102028 132.957716 
L 294.80179 133.977053 
L 296.501552 143.739163 
L 298.201314 169.810664 
L 299.901076 157.578622 
L 301.600838 161.06789 
L 303.3006 202.037392 
L 305.000362 166.987885 
L 306.700124 124.999047 
L 308.399886 134.486721 
L 310.099648 123.430836 
L 311.79941 175.260196 
L 313.499172 158.245111 
L 315.198934 178.279001 
L 316.898696 180.474496 
L 318.598458 210.231292 
L 320.29822 141.896516 
L 321.997982 163.420206 
L 323.697744 170.712385 
L 325.397506 168.085633 
L 327.097268 187.021775 
L 328.79703 179.376749 
L 330.496792 175.769864 
L 332.196554 201.253286 
L 333.896316 175.88748 
L 335.596078 160.871864 
L 337.29584 159.225243 
L 338.995602 176.357943 
L 340.695364 155.187101 
L 342.395126 169.457817 
L 344.094888 158.205906 
L 345.79465 152.521143 
L 347.494412 208.349439 
L 349.194174 213.014866 
L 350.893936 199.606665 
L 352.593698 185.179128 
L 354.29346 211.799502 
L 355.993222 150.600085 
L 357.692984 160.048553 
L 359.392746 195.333291 
L 361.092508 205.330634 
L 362.79227 172.82947 
L 364.492032 206.506792 
L 366.191794 198.508918 
L 367.891556 254.650856 
L 369.591318 206.977255 
L 371.29108 170.986822 
L 372.990842 203.056729 
L 374.690604 199.253818 
L 376.390366 194.627597 
L 378.090129 265.902767 
L 379.789891 203.880039 
L 381.489653 198.587328 
L 383.189415 217.601882 
L 384.889177 262.923167 
L 386.588939 241.203451 
L 388.288701 246.535367 
L 389.988463 236.420409 
L 391.688225 284.799705 
L 393.387987 224.462803 
L 395.087749 242.183582 
L 396.787511 217.876318 
L 398.487273 282.408184 
L 398.487273 282.408184 
" clip-path="url(#pbc13af311b)" style="fill: none; stroke: #bcbd22; stroke-width: 1.5; stroke-linecap: square"/>
   </g>
   <g id="line2d_23">
    <path d="M 73.832727 194.625289 
L 75.532489 181.502987 
L 77.232251 205.209787 
L 78.932013 237.396566 
L 80.631775 237.02518 
L 82.331537 226.99776 
L 84.031299 178.408104 
L 85.731061 236.344306 
L 87.430823 186.70239 
L 89.130585 185.093051 
L 90.830347 243.833921 
L 92.530109 233.558911 
L 94.229871 241.110425 
L 95.929634 174.508552 
L 97.629396 231.021108 
L 99.329158 205.271685 
L 101.02892 223.964776 
L 102.728682 186.331004 
L 104.428444 207.871386 
L 106.128206 247.795371 
L 107.827968 217.094136 
L 109.52773 174.632348 
L 111.227492 203.971834 
L 112.927254 187.630854 
L 114.627016 167.390323 
L 116.326778 198.462943 
L 118.02654 189.85917 
L 119.726302 237.087078 
L 121.426064 224.769445 
L 123.125826 170.980386 
L 124.825588 228.792792 
L 126.52535 184.226484 
L 128.225112 202.671984 
L 129.924874 245.567056 
L 131.624636 192.768359 
L 133.324398 244.019614 
L 135.02416 260.174901 
L 136.723922 195.244265 
L 138.423684 234.796864 
L 140.123446 241.791299 
L 141.823208 184.659767 
L 143.52297 225.821705 
L 145.222732 183.359916 
L 148.622256 239.686779 
L 150.322018 203.352858 
L 152.02178 252.685286 
L 153.721542 201.991109 
L 155.421304 227.740532 
L 157.121066 202.114905 
L 158.820828 220.374712 
L 160.52059 231.330596 
L 162.220352 255.780168 
L 163.920114 176.736868 
L 165.619876 224.026673 
L 167.319638 215.484797 
L 169.0194 231.949572 
L 170.719162 189.921067 
L 172.418924 151.173138 
L 174.118686 237.644156 
L 175.818448 232.692344 
L 177.51821 244.824284 
L 179.217972 179.522262 
L 180.917734 226.75017 
L 182.617496 225.450319 
L 184.317258 202.053007 
L 186.01702 191.406611 
L 187.716782 241.915094 
L 189.416545 188.435524 
L 191.116307 229.783155 
L 192.816069 252.128207 
L 194.515831 259.308334 
L 196.215593 180.141239 
L 197.915355 225.883603 
L 199.615117 240.305755 
L 201.314879 197.658274 
L 203.014641 215.67049 
L 204.714403 249.961789 
L 206.414165 239.439188 
L 208.113927 180.63642 
L 209.813689 224.831343 
L 211.513451 198.524841 
L 213.213213 204.838401 
L 214.912975 220.498507 
L 216.612737 192.025588 
L 218.312499 200.196078 
L 220.012261 213.256482 
L 221.712023 246.681213 
L 223.411785 225.388421 
L 225.111547 227.554839 
L 226.811309 224.707547 
L 228.511071 192.582666 
L 230.210833 169.618638 
L 231.910595 234.425479 
L 233.610357 269.521447 
L 235.310119 229.473666 
L 237.009881 157.053415 
L 238.709643 185.89772 
L 240.409405 175.870301 
L 242.109167 195.058573 
L 243.808929 228.792792 
L 245.508691 198.27725 
L 247.208453 246.805009 
L 248.908215 188.868807 
L 250.607977 203.414755 
L 252.307739 198.648636 
L 254.007501 161.014864 
L 255.707263 218.084499 
L 257.407025 214.742026 
L 259.106787 192.706462 
L 260.806549 227.554839 
L 262.506311 214.680128 
L 264.206073 187.507059 
L 265.905835 202.548188 
L 267.605597 162.809896 
L 269.305359 252.747183 
L 271.005121 194.192005 
L 272.704883 219.570042 
L 274.404645 150.677957 
L 276.104407 169.371047 
L 277.804169 170.732796 
L 279.503931 169.990024 
L 281.203693 213.442175 
L 282.903455 210.471088 
L 284.603218 220.807995 
L 286.30298 238.325031 
L 288.002742 211.956631 
L 289.702504 168.813969 
L 291.402266 184.535972 
L 293.102028 218.146396 
L 294.80179 218.889168 
L 296.501552 155.258383 
L 298.201314 176.42738 
L 299.901076 232.259061 
L 301.600838 220.312814 
L 303.3006 225.450319 
L 305.000362 163.738361 
L 306.700124 193.882517 
L 308.399886 178.655695 
L 310.099648 187.259468 
L 311.79941 192.644564 
L 313.499172 160.024502 
L 315.198934 173.580088 
L 316.898696 181.069703 
L 318.598458 162.314715 
L 320.29822 212.885096 
L 321.997982 162.747999 
L 323.697744 192.582666 
L 325.397506 175.560812 
L 327.097268 198.896227 
L 328.79703 177.974821 
L 330.496792 139.53638 
L 332.196554 197.905864 
L 333.896316 149.254311 
L 335.596078 190.292453 
L 337.29584 219.941428 
L 338.995602 143.002648 
L 340.695364 150.554161 
L 342.395126 195.615651 
L 344.094888 188.745012 
L 345.79465 166.771346 
L 347.494412 179.027081 
L 349.194174 127.528235 
L 350.893936 137.308064 
L 352.593698 149.254311 
L 354.29346 151.173138 
L 355.993222 169.061559 
L 357.692984 185.402539 
L 359.392746 191.777997 
L 361.092508 175.994096 
L 362.79227 180.017443 
L 364.492032 182.183861 
L 366.191794 188.497422 
L 367.891556 132.046764 
L 369.591318 110.506381 
L 371.29108 178.717593 
L 372.990842 118.367383 
L 374.690604 97.879261 
L 376.390366 176.922561 
L 378.090129 131.675378 
L 379.789891 151.235036 
L 381.489653 117.995997 
L 383.189415 148.016358 
L 384.889177 97.198386 
L 386.588939 109.454121 
L 388.288701 160.829172 
L 389.988463 179.769853 
L 391.688225 116.139068 
L 393.387987 154.577509 
L 396.787511 116.262863 
L 398.487273 122.14314 
L 398.487273 122.14314 
" clip-path="url(#pbc13af311b)" style="fill: none; stroke: #17becf; stroke-width: 1.5; stroke-linecap: square"/>
   </g>
   <g id="line2d_24">
    <path d="M 73.832727 222.178719 
L 75.532489 210.005048 
L 77.232251 204.924697 
L 78.932013 216.091883 
L 80.631775 195.243273 
L 82.331537 232.866627 
L 84.031299 235.742298 
L 85.731061 220.405389 
L 87.430823 249.976866 
L 89.130585 222.849709 
L 90.830347 221.987008 
L 92.530109 224.335472 
L 94.229871 221.076379 
L 95.929634 229.080328 
L 97.629396 214.845759 
L 99.329158 203.486861 
L 101.02892 225.294029 
L 102.728682 243.650391 
L 104.428444 223.376915 
L 106.128206 199.988129 
L 107.827968 234.016896 
L 109.52773 222.322503 
L 111.227492 250.216505 
L 112.927254 230.757802 
L 114.627016 227.977988 
L 116.326778 243.890031 
L 118.02654 216.235667 
L 119.726302 229.224111 
L 121.426064 220.309533 
L 123.125826 243.842103 
L 124.825588 239.91202 
L 126.52535 223.328987 
L 128.225112 213.407924 
L 129.924874 222.753853 
L 133.324398 198.502366 
L 135.02416 230.326452 
L 136.723922 227.450781 
L 138.423684 221.747368 
L 140.123446 216.571162 
L 141.823208 209.669553 
L 143.52297 218.440347 
L 145.222732 196.058046 
L 146.922494 219.303049 
L 148.622256 229.080328 
L 150.322018 218.967554 
L 152.02178 211.203244 
L 153.721542 229.080328 
L 155.421304 235.790226 
L 157.121066 207.704511 
L 158.820828 223.04142 
L 160.52059 246.286423 
L 162.220352 214.222698 
L 163.920114 219.303049 
L 165.619876 217.481791 
L 167.319638 221.411874 
L 169.0194 211.682522 
L 170.719162 234.687885 
L 172.418924 208.231718 
L 174.118686 210.340542 
L 175.818448 198.598222 
L 177.51821 227.25907 
L 179.217972 247.197052 
L 180.917734 224.527183 
L 182.617496 209.525769 
L 184.317258 227.354926 
L 186.01702 210.580182 
L 187.716782 203.870284 
L 189.416545 219.111337 
L 191.116307 211.73045 
L 192.816069 210.244687 
L 194.515831 192.41553 
L 196.215593 234.975452 
L 197.915355 217.961069 
L 199.615117 249.881011 
L 201.314879 230.13474 
L 203.014641 220.405389 
L 204.714403 205.403975 
L 206.414165 206.218748 
L 208.113927 255.824063 
L 209.813689 215.27711 
L 211.513451 229.0324 
L 213.213213 194.476427 
L 214.912975 193.422015 
L 216.612737 196.489397 
L 218.312499 207.992078 
L 220.012261 162.268919 
L 221.712023 195.866335 
L 223.411785 214.414409 
L 225.111547 163.083692 
L 226.811309 202.240738 
L 228.511071 221.363946 
L 230.210833 184.411581 
L 231.910595 201.378036 
L 233.610357 176.647271 
L 235.310119 248.251464 
L 237.009881 187.622746 
L 238.709643 203.199294 
L 240.409405 195.674623 
L 242.109167 170.656291 
L 243.808929 208.710996 
L 245.508691 208.663068 
L 247.208453 209.669553 
L 248.908215 195.099489 
L 250.607977 209.621625 
L 252.307739 203.726501 
L 254.007501 188.006169 
L 255.707263 227.594565 
L 257.407025 181.440055 
L 259.106787 218.967554 
L 260.806549 186.184911 
L 262.506311 216.235667 
L 264.206073 193.469943 
L 265.905835 210.819821 
L 267.605597 193.422015 
L 269.305359 215.516749 
L 271.005121 180.241859 
L 272.704883 180.289787 
L 274.404645 203.678573 
L 276.104407 188.245808 
L 277.804169 168.02026 
L 279.503931 158.099197 
L 281.203693 210.484326 
L 282.903455 214.126842 
L 284.603218 194.284716 
L 286.30298 136.387885 
L 288.002742 227.498709 
L 289.702504 191.217334 
L 291.402266 184.699148 
L 293.102028 166.342785 
L 294.80179 161.550001 
L 296.501552 197.447953 
L 298.201314 176.599343 
L 299.901076 212.257656 
L 301.600838 192.319675 
L 303.3006 204.014068 
L 305.000362 200.371552 
L 306.700124 161.118651 
L 308.399886 164.665311 
L 310.099648 184.986715 
L 311.79941 151.964433 
L 313.499172 160.735228 
L 315.198934 204.876769 
L 316.898696 197.447953 
L 318.598458 178.899879 
L 320.29822 182.782034 
L 321.997982 177.318261 
L 323.697744 168.068187 
L 325.397506 173.7716 
L 327.097268 180.864921 
L 328.79703 167.828548 
L 330.496792 125.220698 
L 332.196554 155.271454 
L 333.896316 148.03435 
L 335.596078 153.689835 
L 337.29584 123.303585 
L 338.995602 165.288373 
L 340.695364 176.695199 
L 342.395126 127.425379 
L 344.094888 138.400854 
L 345.79465 142.091298 
L 347.494412 112.519821 
L 349.194174 123.974575 
L 350.893936 144.727329 
L 352.593698 186.280767 
L 354.29346 117.839811 
L 355.993222 154.504609 
L 357.692984 149.80768 
L 359.392746 138.544638 
L 361.092508 141.61202 
L 362.79227 153.210557 
L 364.492032 159.249465 
L 366.191794 103.940737 
L 367.891556 116.833326 
L 369.591318 117.120893 
L 371.29108 116.114409 
L 372.990842 110.075501 
L 374.690604 106.912264 
L 376.390366 83.9069 
L 378.090129 142.906071 
L 379.789891 126.131327 
L 381.489653 97.470479 
L 383.189415 133.84771 
L 384.889177 69.193053 
L 386.588939 108.11046 
L 388.288701 99.00417 
L 389.988463 94.355169 
L 391.688225 115.87477 
L 393.387987 90.808509 
L 395.087749 100.681644 
L 396.787511 101.544345 
L 398.487273 94.690664 
L 398.487273 94.690664 
" clip-path="url(#pbc13af311b)" style="fill: none; stroke: #1f77b4; stroke-width: 1.5; stroke-linecap: square"/>
   </g>
   <g id="line2d_25">
    <path d="M 73.832727 103.926691 
L 75.532489 131.816218 
L 77.232251 108.498744 
L 78.932013 99.811843 
L 80.631775 120.386084 
L 82.331537 89.753325 
L 84.031299 104.841102 
L 85.731061 127.244164 
L 87.430823 134.55945 
L 89.130585 139.131503 
L 90.830347 95.696995 
L 92.530109 96.611405 
L 94.229871 145.989584 
L 95.929634 98.440227 
L 97.629396 136.845476 
L 99.329158 123.129316 
L 101.02892 129.530191 
L 102.728682 111.241977 
L 104.428444 112.156387 
L 106.128206 83.35245 
L 107.827968 116.728441 
L 109.52773 137.302682 
L 111.227492 121.300494 
L 112.927254 143.703557 
L 114.627016 120.386084 
L 116.326778 115.356825 
L 118.02654 117.185646 
L 119.726302 89.29612 
L 121.426064 108.95595 
L 123.125826 103.469486 
L 124.825588 114.442414 
L 126.52535 76.49437 
L 128.225112 92.496557 
L 129.924874 106.669923 
L 131.624636 106.669923 
L 133.324398 96.1542 
L 135.02416 91.582146 
L 136.723922 88.381709 
L 138.423684 121.7577 
L 140.123446 94.325378 
L 141.823208 133.187834 
L 143.52297 123.129316 
L 145.222732 135.016655 
L 146.922494 113.528003 
L 148.622256 128.158575 
L 150.322018 131.359012 
L 152.02178 103.01228 
L 153.721542 119.471673 
L 155.421304 109.870361 
L 157.121066 124.043727 
L 158.820828 132.730628 
L 160.52059 164.277798 
L 162.220352 113.070798 
L 163.920114 122.67211 
L 165.619876 99.811843 
L 167.319638 121.300494 
L 169.0194 146.903994 
L 170.719162 113.985209 
L 172.418924 92.039352 
L 174.118686 120.386084 
L 175.818448 116.271235 
L 177.51821 99.811843 
L 179.217972 144.160762 
L 180.917734 125.872548 
L 182.617496 121.7577 
L 184.317258 120.386084 
L 186.01702 106.212718 
L 187.716782 118.557262 
L 189.416545 90.667736 
L 191.116307 119.928878 
L 192.816069 117.642852 
L 194.515831 131.359012 
L 196.215593 125.872548 
L 197.915355 119.014468 
L 199.615117 138.674298 
L 201.314879 135.931066 
L 203.014641 92.496557 
L 204.714403 144.617967 
L 206.414165 130.901807 
L 208.113927 124.500932 
L 209.813689 125.872548 
L 211.513451 112.156387 
L 213.213213 143.703557 
L 214.912975 124.500932 
L 216.612737 102.09787 
L 218.312499 134.55945 
L 220.012261 115.81403 
L 221.712023 98.440227 
L 223.411785 124.500932 
L 225.111547 171.593083 
L 226.811309 141.41753 
L 230.210833 117.185646 
L 231.910595 126.786959 
L 233.610357 124.500932 
L 235.310119 150.561637 
L 237.009881 147.818405 
L 238.709643 177.536753 
L 240.409405 131.359012 
L 242.109167 110.327566 
L 243.808929 149.190021 
L 245.508691 146.903994 
L 247.208453 136.845476 
L 248.908215 135.931066 
L 250.607977 161.07736 
L 252.307739 138.674298 
L 254.007501 132.273423 
L 255.707263 100.726253 
L 257.407025 139.131503 
L 259.106787 116.728441 
L 260.806549 143.703557 
L 262.506311 157.419717 
L 264.206073 170.221467 
L 265.905835 107.127128 
L 267.605597 114.442414 
L 269.305359 102.09787 
L 271.005121 93.410968 
L 272.704883 108.95595 
L 274.404645 130.901807 
L 276.104407 135.931066 
L 277.804169 134.102244 
L 279.503931 146.446789 
L 281.203693 182.566012 
L 282.903455 199.939815 
L 284.603218 191.710119 
L 286.30298 133.187834 
L 288.002742 129.072985 
L 289.702504 177.993958 
L 291.402266 192.62453 
L 293.102028 181.651601 
L 294.80179 134.102244 
L 296.501552 158.791333 
L 298.201314 128.61578 
L 299.901076 156.962512 
L 301.600838 161.991771 
L 303.3006 112.156387 
L 305.000362 148.27561 
L 306.700124 170.221467 
L 308.399886 154.676485 
L 310.099648 204.969074 
L 311.79941 145.532378 
L 313.499172 161.07736 
L 315.198934 137.759887 
L 316.898696 130.901807 
L 318.598458 164.735003 
L 320.29822 184.394833 
L 321.997982 161.991771 
L 323.697744 173.421905 
L 325.397506 187.138065 
L 327.097268 140.045914 
L 328.79703 193.081735 
L 330.496792 183.480423 
L 332.196554 180.73719 
L 333.896316 185.766449 
L 335.596078 171.135878 
L 337.29584 155.133691 
L 338.995602 197.196583 
L 340.695364 157.419717 
L 342.395126 203.597458 
L 344.094888 217.770824 
L 345.79465 175.250726 
L 347.494412 180.73719 
L 349.194174 193.081735 
L 350.893936 216.399208 
L 352.593698 175.707932 
L 354.29346 205.883485 
L 355.993222 185.766449 
L 357.692984 207.712306 
L 359.392746 179.365574 
L 361.092508 210.912744 
L 362.79227 179.365574 
L 364.492032 226.00052 
L 366.191794 205.883485 
L 367.891556 197.196583 
L 369.591318 228.286547 
L 371.29108 215.942003 
L 372.990842 215.027592 
L 374.690604 203.597458 
L 376.390366 231.486985 
L 378.090129 170.221467 
L 379.789891 219.599646 
L 381.489653 216.399208 
L 383.189415 240.173886 
L 384.889177 257.54769 
L 386.588939 228.286547 
L 388.288701 185.766449 
L 389.988463 253.890047 
L 391.688225 214.570387 
L 393.387987 271.263851 
L 395.087749 244.288735 
L 396.787511 261.205333 
L 398.487273 246.117556 
L 398.487273 246.117556 
" clip-path="url(#pbc13af311b)" style="fill: none; stroke: #ff7f0e; stroke-width: 1.5; stroke-linecap: square"/>
   </g>
   <g id="line2d_26">
    <path d="M 73.832727 241.296118 
L 75.532489 249.899891 
L 77.232251 232.692344 
L 78.932013 219.786684 
L 80.631775 241.296118 
L 82.331537 258.503665 
L 84.031299 258.503665 
L 85.731061 267.107438 
L 87.430823 245.598005 
L 90.830347 245.598005 
L 92.530109 228.390458 
L 94.229871 215.484797 
L 95.929634 228.390458 
L 97.629396 219.786684 
L 99.329158 245.598005 
L 101.02892 241.296118 
L 104.428444 249.899891 
L 106.128206 245.598005 
L 107.827968 219.786684 
L 109.52773 249.899891 
L 111.227492 245.598005 
L 112.927254 215.484797 
L 114.627016 258.503665 
L 116.326778 236.994231 
L 118.02654 258.503665 
L 119.726302 215.484797 
L 121.426064 245.598005 
L 123.125826 236.994231 
L 124.825588 232.692344 
L 126.52535 249.899891 
L 128.225112 249.899891 
L 129.924874 254.201778 
L 131.624636 249.899891 
L 133.324398 262.805551 
L 135.02416 236.994231 
L 136.723922 232.692344 
L 138.423684 258.503665 
L 140.123446 241.296118 
L 141.823208 241.296118 
L 143.52297 232.692344 
L 145.222732 254.201778 
L 146.922494 249.899891 
L 148.622256 232.692344 
L 150.322018 241.296118 
L 152.02178 241.296118 
L 153.721542 232.692344 
L 157.121066 241.296118 
L 158.820828 258.503665 
L 160.52059 249.899891 
L 162.220352 245.598005 
L 163.920114 249.899891 
L 165.619876 249.899891 
L 167.319638 262.805551 
L 170.719162 228.390458 
L 172.418924 236.994231 
L 174.118686 241.296118 
L 175.818448 219.786684 
L 177.51821 224.088571 
L 179.217972 241.296118 
L 180.917734 224.088571 
L 182.617496 254.201778 
L 184.317258 241.296118 
L 186.01702 224.088571 
L 187.716782 224.088571 
L 189.416545 236.994231 
L 191.116307 219.786684 
L 192.816069 254.201778 
L 194.515831 236.994231 
L 196.215593 254.201778 
L 197.915355 236.994231 
L 199.615117 236.994231 
L 201.314879 258.503665 
L 203.014641 241.296118 
L 204.714403 232.692344 
L 206.414165 249.899891 
L 208.113927 241.296118 
L 209.813689 224.088571 
L 211.513451 224.088571 
L 213.213213 232.692344 
L 214.912975 245.598005 
L 216.612737 262.805551 
L 218.312499 224.088571 
L 220.012261 206.881024 
L 221.712023 236.994231 
L 223.411785 245.598005 
L 225.111547 224.088571 
L 226.811309 249.899891 
L 228.511071 206.881024 
L 230.210833 236.994231 
L 231.910595 202.579137 
L 233.610357 258.503665 
L 235.310119 236.994231 
L 237.009881 228.390458 
L 238.709643 241.296118 
L 240.409405 232.692344 
L 243.808929 241.296118 
L 245.508691 202.579137 
L 247.208453 228.390458 
L 248.908215 232.692344 
L 250.607977 228.390458 
L 254.007501 236.994231 
L 255.707263 206.881024 
L 257.407025 224.088571 
L 259.106787 211.182911 
L 260.806549 215.484797 
L 262.506311 241.296118 
L 264.206073 224.088571 
L 265.905835 236.994231 
L 267.605597 219.786684 
L 269.305359 232.692344 
L 271.005121 224.088571 
L 276.104407 224.088571 
L 277.804169 236.994231 
L 279.503931 202.579137 
L 281.203693 215.484797 
L 282.903455 211.182911 
L 284.603218 211.182911 
L 286.30298 245.598005 
L 289.702504 211.182911 
L 291.402266 228.390458 
L 293.102028 211.182911 
L 294.80179 219.786684 
L 296.501552 193.975364 
L 298.201314 219.786684 
L 299.901076 219.786684 
L 301.600838 206.881024 
L 303.3006 241.296118 
L 305.000362 206.881024 
L 306.700124 219.786684 
L 308.399886 241.296118 
L 310.099648 193.975364 
L 311.79941 211.182911 
L 313.499172 224.088571 
L 315.198934 211.182911 
L 316.898696 193.975364 
L 318.598458 211.182911 
L 320.29822 215.484797 
L 323.697744 198.27725 
L 325.397506 193.975364 
L 327.097268 215.484797 
L 328.79703 206.881024 
L 330.496792 189.673477 
L 332.196554 206.881024 
L 333.896316 206.881024 
L 335.596078 198.27725 
L 337.29584 155.258383 
L 338.995602 206.881024 
L 340.695364 181.069703 
L 342.395126 211.182911 
L 344.094888 176.767817 
L 347.494412 202.579137 
L 349.194174 181.069703 
L 350.893936 193.975364 
L 352.593698 185.37159 
L 354.29346 172.46593 
L 355.993222 168.164043 
L 357.692984 172.46593 
L 359.392746 159.56027 
L 361.092508 176.767817 
L 362.79227 181.069703 
L 364.492032 163.862156 
L 366.191794 172.46593 
L 367.891556 172.46593 
L 369.591318 168.164043 
L 371.29108 168.164043 
L 372.990842 159.56027 
L 374.690604 168.164043 
L 376.390366 155.258383 
L 378.090129 176.767817 
L 379.789891 168.164043 
L 381.489653 155.258383 
L 383.189415 176.767817 
L 384.889177 163.862156 
L 386.588939 142.352723 
L 388.288701 176.767817 
L 389.988463 142.352723 
L 391.688225 133.748949 
L 393.387987 150.956496 
L 395.087749 142.352723 
L 396.787511 146.654609 
L 398.487273 129.447063 
L 398.487273 129.447063 
" clip-path="url(#pbc13af311b)" style="fill: none; stroke: #2ca02c; stroke-width: 1.5; stroke-linecap: square"/>
   </g>
   <g id="line2d_27">
    <path d="M 73.832727 278.964169 
L 75.532489 281.665057 
L 77.232251 270.364642 
L 78.932013 274.772695 
L 80.631775 267.549093 
L 82.331537 274.517895 
L 84.031299 262.478557 
L 85.731061 285.83105 
L 87.430823 278.620187 
L 89.130585 271.944407 
L 90.830347 274.607075 
L 92.530109 274.912836 
L 94.229871 278.161546 
L 95.929634 277.460844 
L 97.629396 271.281925 
L 99.329158 274.951056 
L 101.02892 267.842114 
L 102.728682 274.683515 
L 104.428444 269.026938 
L 106.128206 279.33363 
L 107.827968 276.467121 
L 109.52773 259.828629 
L 111.227492 278.849508 
L 112.927254 282.059998 
L 114.627016 268.810357 
L 116.326778 277.792085 
L 118.02654 276.709181 
L 119.726302 274.314054 
L 121.426064 273.511432 
L 123.125826 279.690351 
L 124.825588 262.924459 
L 126.52535 272.87443 
L 128.225112 277.766605 
L 131.624636 279.51199 
L 133.324398 281.040795 
L 135.02416 267.179632 
L 136.723922 267.396212 
L 138.423684 271.867966 
L 140.123446 270.313682 
L 141.823208 275.396957 
L 143.52297 265.115745 
L 145.222732 264.071062 
L 146.922494 278.097846 
L 148.622256 260.962492 
L 150.322018 260.886052 
L 152.02178 271.511245 
L 153.721542 280.148992 
L 155.421304 273.294851 
L 157.121066 275.893819 
L 158.820828 277.817565 
L 160.52059 266.45345 
L 162.220352 272.645109 
L 163.920114 266.096728 
L 165.619876 275.460658 
L 167.319638 283.767163 
L 169.0194 273.09101 
L 170.719162 273.689792 
L 172.418924 274.033773 
L 174.118686 271.957147 
L 175.818448 273.371291 
L 177.51821 269.498319 
L 179.217972 274.161174 
L 180.917734 282.174659 
L 182.617496 281.741497 
L 184.317258 262.070876 
L 186.01702 273.804452 
L 187.716782 271.842486 
L 189.416545 273.358551 
L 191.116307 269.74038 
L 192.816069 279.091569 
L 194.515831 268.479116 
L 196.215593 274.568855 
L 199.615117 283.894564 
L 201.314879 265.765487 
L 203.014641 278.645668 
L 204.714403 283.830864 
L 206.414165 276.836582 
L 208.113927 282.174659 
L 209.813689 280.085292 
L 211.513451 276.37794 
L 213.213213 275.282297 
L 214.912975 273.511432 
L 216.612737 266.364269 
L 218.312499 277.600984 
L 220.012261 273.447731 
L 221.712023 278.276206 
L 223.411785 267.434433 
L 225.111547 272.492228 
L 226.811309 273.192931 
L 228.511071 276.19958 
L 230.210833 276.823842 
L 231.910595 279.42281 
L 233.610357 275.575318 
L 235.310119 275.753678 
L 237.009881 279.078829 
L 238.709643 279.855971 
L 240.409405 280.301873 
L 242.109167 279.56295 
L 243.808929 271.180004 
L 245.508691 272.377568 
L 247.208453 269.93148 
L 248.908215 280.824214 
L 250.607977 276.19958 
L 252.307739 274.339534 
L 254.007501 275.791899 
L 255.707263 277.894005 
L 257.407025 272.670589 
L 260.806549 272.020847 
L 262.506311 272.479488 
L 264.206073 270.097101 
L 265.905835 278.467307 
L 267.605597 273.638832 
L 269.305359 274.479675 
L 271.005121 274.607075 
L 272.704883 272.683329 
L 274.404645 279.34637 
L 276.104407 275.740938 
L 277.804169 285.614469 
L 279.503931 283.805384 
L 281.203693 274.823656 
L 282.903455 270.249981 
L 284.603218 279.002389 
L 286.30298 275.244077 
L 288.002742 276.785622 
L 289.702504 265.714527 
L 291.402266 279.104309 
L 293.102028 283.066461 
L 294.80179 280.352833 
L 296.501552 281.703277 
L 298.201314 272.89991 
L 299.901076 279.002389 
L 301.600838 273.282111 
L 303.3006 285.71639 
L 305.000362 286.149551 
L 306.700124 274.568855 
L 308.399886 280.722294 
L 310.099648 266.65729 
L 311.79941 273.01457 
L 313.499172 278.429087 
L 315.198934 273.307591 
L 316.898696 274.963796 
L 318.598458 278.034146 
L 320.29822 279.218969 
L 321.997982 285.270488 
L 323.697744 285.665429 
L 325.397506 264.886425 
L 327.097268 280.785994 
L 328.79703 276.505341 
L 330.496792 281.881638 
L 332.196554 274.836396 
L 333.896316 275.282297 
L 335.596078 274.670775 
L 337.29584 281.486696 
L 338.995602 270.135321 
L 340.695364 275.103936 
L 342.395126 276.581781 
L 344.094888 279.945152 
L 345.79465 276.581781 
L 347.494412 281.180935 
L 349.194174 275.078456 
L 350.893936 275.486138 
L 352.593698 288.009597 
L 354.29346 282.888101 
L 355.993222 284.238545 
L 357.692984 291.500368 
L 359.392746 267.510873 
L 361.092508 281.716017 
L 362.79227 284.149365 
L 364.492032 287.996857 
L 366.191794 275.613538 
L 367.891556 285.257748 
L 369.591318 283.461403 
L 371.29108 279.53747 
L 372.990842 278.951428 
L 374.690604 278.989649 
L 376.390366 281.461216 
L 378.090129 287.703836 
L 379.789891 289.0288 
L 381.489653 285.283228 
L 383.189415 285.652689 
L 384.889177 276.772882 
L 386.588939 282.123698 
L 388.288701 272.364828 
L 389.988463 289.767722 
L 391.688225 289.512921 
L 393.387987 281.053535 
L 395.087749 286.111331 
L 396.787511 283.334002 
L 398.487273 295.488 
L 398.487273 295.488 
" clip-path="url(#pbc13af311b)" style="fill: none; stroke: #d62728; stroke-width: 1.5; stroke-linecap: square"/>
   </g>
   <g id="patch_3">
    <path d="M 57.6 307.584 
L 57.6 41.472 
" style="fill: none; stroke: #000000; stroke-width: 0.8; stroke-linejoin: miter; stroke-linecap: square"/>
   </g>
   <g id="patch_4">
    <path d="M 414.72 307.584 
L 414.72 41.472 
" style="fill: none; stroke: #000000; stroke-width: 0.8; stroke-linejoin: miter; stroke-linecap: square"/>
   </g>
   <g id="patch_5">
    <path d="M 57.6 307.584 
L 414.72 307.584 
" style="fill: none; stroke: #000000; stroke-width: 0.8; stroke-linejoin: miter; stroke-linecap: square"/>
   </g>
   <g id="patch_6">
    <path d="M 57.6 41.472 
L 414.72 41.472 
" style="fill: none; stroke: #000000; stroke-width: 0.8; stroke-linejoin: miter; stroke-linecap: square"/>
   </g>
  </g>
 </g>
 <defs>
  <clipPath id="pbc13af311b">
   <rect x="57.6" y="41.472" width="357.12" height="266.112"/>
  </clipPath>
 </defs>
</svg>
